<svg width="64" height="64" viewBox="0 0 64 64" fill="none" xmlns="http://www.w3.org/2000/svg">
<g clip-path="url(#clip0_647_4347)">
<mask id="mask0_647_4347" style="mask-type:luminance" maskUnits="userSpaceOnUse" x="0" y="0" width="64" height="64">
<path d="M0 0H64V64H0V0Z" fill="white"/>
</mask>
<g mask="url(#mask0_647_4347)">
<path fill-rule="evenodd" clip-rule="evenodd" d="M-11.875 0H84.125V64H-11.875V0Z" fill="#0C590B"/>
<path fill-rule="evenodd" clip-rule="evenodd" d="M-11.875 0H12.1875V64H-11.875V0Z" fill="white"/>
<path fill-rule="evenodd" clip-rule="evenodd" d="M50.4629 28.1742L46.5629 27.3492L44.5129 30.7617L44.0879 26.8117L40.2129 25.9117L43.8379 24.2867L43.5004 20.3242L46.1754 23.2742L49.8379 21.7242L47.8504 25.1742L50.4754 28.1742H50.4629Z" fill="white"/>
<path fill-rule="evenodd" clip-rule="evenodd" d="M51.9252 38.25C51.096 40.0675 49.9149 41.7027 48.4502 43.0612C46.9855 44.4197 45.2662 45.4746 43.3916 46.1649C41.5169 46.8553 39.5241 47.1674 37.5281 47.0833C35.5322 46.9993 33.5727 46.5206 31.7627 45.675C29.9428 44.8342 28.3066 43.6428 26.9475 42.169C25.5885 40.6952 24.5334 38.9679 23.8426 37.0859C23.1518 35.2039 22.8389 33.2042 22.9217 31.2011C23.0045 29.1981 23.4815 27.231 24.3252 25.4125C25.1724 23.526 26.4037 21.8368 27.9405 20.4529C29.4772 19.069 31.2856 18.0207 33.2502 17.375C32.7355 17.8035 32.2432 18.2583 31.7752 18.7375C29.3365 21.4383 28.0419 24.9807 28.1643 28.6176C28.2868 32.2545 29.8169 35.7017 32.4318 38.2324C35.0468 40.763 38.5422 42.1793 42.1812 42.1826C45.8202 42.1859 49.3182 40.7759 51.9377 38.25H51.9252Z" fill="white"/>
</g>
</g>
<defs>
<clipPath id="clip0_647_4347">
<rect width="64" height="64" fill="white"/>
</clipPath>
</defs>
</svg>
